<svg width="48" height="48" viewBox="0 0 48 48" fill="none" xmlns="http://www.w3.org/2000/svg">
<path d="M25.682 38.9562C20.2226 38.9562 15.0941 36.7688 11.2891 32.8315C3.34815 24.7383 3.34815 11.5593 11.2891 3.41136L12.0059 2.64578L40.7918 32.1206L40.0749 32.8315C36.2147 36.7688 31.1413 38.9562 25.682 38.9562ZM12.0059 5.65342C5.6091 12.9811 5.82968 24.3555 12.7228 31.4098C16.197 34.9642 20.774 36.8782 25.6268 36.8782C30.2039 36.8782 34.5052 35.183 37.8691 32.066L12.0059 5.65342Z" fill="black"/>
<path d="M42.6667 43.3309H8.69727V46.6666H42.6667V43.3309Z" fill="#276EF1"/>
<path d="M38.7513 40.0499H12.5573C12.5573 40.9248 11.8405 41.6357 10.9581 41.6357V43.4403H40.3505V41.6357C39.4682 41.6357 38.7513 40.9248 38.7513 40.0499Z" fill="black"/>
<path d="M26.6747 37.9172H24.6343V39.9952H26.6747V37.9172Z" fill="black"/>
<path d="M25.6819 35.0189C34.7578 35.0189 42.1152 27.4781 42.1152 18.1761C42.1152 8.87411 34.7578 1.33334 25.6819 1.33334C16.6061 1.33334 9.24866 8.87411 9.24866 18.1761C9.24866 27.4781 16.6061 35.0189 25.6819 35.0189Z" fill="#A0BFF8"/>
<path d="M24.965 15.606V11.0125C24.965 10.411 24.193 10.1375 23.8621 10.575L20.002 15.7153C19.6711 16.1528 20.002 16.7543 20.4983 16.7543H23.807C24.4687 16.7543 24.965 16.2622 24.965 15.606Z" fill="#276EF1"/>
<path d="M42.1153 18.1762C42.1153 18.1762 42.1153 18.1761 42.1153 18.1762C42.1153 8.87414 34.7578 1.33334 25.682 1.33334C23.1623 1.33334 20.775 1.91456 18.6409 2.95333L20.1675 4.50507L21.9322 6.30965C22.5388 6.91118 23.3659 7.29397 24.1931 7.29397H25.6269C26.7849 7.29397 27.7776 8.27829 27.7776 9.48134V12.489C27.7776 13.3639 28.1084 14.1842 28.715 14.7857L36.6559 22.879C37.042 23.2618 37.7037 22.9884 37.7037 22.4415V20.3635C37.7037 19.1605 38.6412 18.1762 39.8544 18.1762H42.1153Z" fill="#276EF1"/>
<path d="M36.2699 5.29468V8.71574C36.2699 9.91879 37.2074 10.9031 38.4206 10.9031H40.5084C39.4949 8.73677 38.0428 6.827 36.2699 5.29468Z" fill="#A0BFF8"/>
<path d="M32.614 33.4515C30.5077 34.4573 28.1588 35.0189 25.6819 35.0189C16.6061 35.0189 9.24866 27.4781 9.24866 18.1761C9.24866 17.8457 9.25794 17.5175 9.27625 17.1918H14.8184C15.6455 17.1918 16.4727 17.5746 17.0793 18.1761L20.002 21.0744C20.6086 21.7306 21.4358 22.0587 22.263 22.0587H26.2886C27.5018 22.0587 28.4392 23.043 28.4392 24.2461V27.8553C28.4392 28.6755 28.7701 29.5505 29.3767 30.152L32.614 33.4515Z" fill="#276EF1"/>
</svg>
