<svg width="48" height="48" viewBox="0 0 48 48" fill="none" xmlns="http://www.w3.org/2000/svg">
<path d="M43.4211 14.3917H4.8363V42.6666H43.4211V14.3917Z" fill="#A0BFF8"/>
<path d="M14.315 5.33326H7.8241V15.596H14.315V5.33326Z" fill="#A0BFF8"/>
<path d="M27.2454 5.33326H20.7545V15.596H27.2454V5.33326Z" fill="#A0BFF8"/>
<path d="M40.2272 5.33326H33.7363V15.596H40.2272V5.33326Z" fill="#A0BFF8"/>
<path d="M7.82416 15.5959C7.82416 17.4285 6.38174 18.8946 4.57871 18.8946C2.77568 18.8946 1.33325 17.4285 1.33325 15.5959" fill="black"/>
<path d="M20.7545 15.5959C20.7545 17.4285 19.312 18.8946 17.509 18.8946C15.706 18.8946 14.2635 17.4285 14.2635 15.5959" fill="black"/>
<path d="M33.6848 15.5959C33.6848 17.4285 32.2423 18.8946 30.4393 18.8946C28.6363 18.8946 27.1938 17.4285 27.1938 15.5959" fill="black"/>
<path d="M46.6151 15.5959C46.6151 17.4285 45.1726 18.8946 43.3696 18.8946C41.5666 18.8946 40.1241 17.4285 40.1241 15.5959" fill="black"/>
<path d="M38.2696 28.0054C38.2696 24.8114 35.7454 22.2457 32.6029 22.2457C29.4605 22.2457 26.9363 24.8114 26.9363 28.0054" fill="black"/>
<path d="M7.82416 15.596H1.33325L7.82416 5.33326V15.596Z" fill="#276EF1"/>
<path d="M20.7545 5.33326H14.2635V15.596H20.7545V5.33326Z" fill="#276EF1"/>
<path d="M33.7363 5.33326H27.2454V15.596H33.7363V5.33326Z" fill="#276EF1"/>
<path d="M46.6666 15.596H40.1757V5.33326L46.6666 15.596Z" fill="#276EF1"/>
<path d="M14.2636 15.5959C14.2636 17.4285 12.8212 18.8946 11.0182 18.8946C9.21513 18.8946 7.77271 17.4285 7.77271 15.5959" fill="#276EF1"/>
<path d="M27.1938 15.5959C27.1938 17.4285 25.7514 18.8946 23.9483 18.8946C22.1453 18.8946 20.7029 17.4285 20.7029 15.5959" fill="#276EF1"/>
<path d="M40.1757 15.5959C40.1757 17.4285 38.7333 18.8946 36.9303 18.8946C35.1272 18.8946 33.6848 17.4285 33.6848 15.5959" fill="#276EF1"/>
<path d="M22.9181 32.7178H9.67871V36.3831H22.9181V32.7178Z" fill="#276EF1"/>
<path d="M26.8848 28.0055V42.6665H38.2696V28.0055" fill="#276EF1"/>
<path d="M22.9181 24.2354H9.67871V32.7179H22.9181V24.2354Z" fill="white"/>
</svg>
