<svg width="150" height="150" viewBox="0 0 150 150" fill="none" xmlns="http://www.w3.org/2000/svg">
<g clip-path="url(#clip0_7_13776)">
<g clip-path="url(#clip1_7_13776)">
<path d="M80.187 15H126.302C131.135 15 135 18.8651 135 23.6979V126.308C135 131.141 131.135 135.006 126.302 135.006H80.187C75.3541 135.006 71.489 131.141 71.489 126.308V23.6979C71.489 18.9283 75.4173 15 80.187 15Z" fill="#AFAFAF"/>
<path d="M80.1807 17.8466H126.302C129.585 17.8466 132.229 20.4845 132.229 23.7739V126.384C132.229 129.667 129.591 132.312 126.302 132.312H80.1807C76.8976 132.312 74.2534 129.674 74.2534 126.384V23.7739C74.2534 20.5541 76.8976 17.8466 80.1807 17.8466Z" fill="white"/>
<path d="M118.243 89.2899H88.2271V94.0216H118.243V89.2899Z" fill="#E2E2E2"/>
<path d="M126.005 99.0949H80.4653V102.201H126.005V99.0949Z" fill="#E2E2E2"/>
<path d="M126.005 105.307H80.4653V108.413H126.005V105.307Z" fill="#E2E2E2"/>
<path d="M87.4616 15H119.021V19.2509C119.021 20.7944 117.8 22.0849 116.187 22.0849H90.2323C88.6888 22.0849 87.3983 20.864 87.3983 19.3142L87.4616 15V15Z" fill="#AFAFAF"/>
<path d="M112.328 18.5424H94.1606V19.5103H112.328V18.5424Z" fill="#757575"/>
<path d="M129.093 33.6865V65.0567C129.093 66.493 127.917 67.6421 126.446 67.6421H79.9733C78.5027 67.6421 77.3262 66.493 77.3262 65.0567V33.6865C77.3262 32.2501 78.5027 31.101 79.9733 31.101H126.446C127.917 31.101 129.093 32.2501 129.093 33.6865Z" fill="#AFAFAF"/>
<path d="M101.673 59.5362V57.6441C98.9343 57.1462 96.9924 55.3038 96.7932 52.7146H99.8306C99.9799 53.8101 100.627 54.6068 101.673 54.9553V51.0715L100.976 50.8723C98.1874 50.1254 96.7932 48.7312 96.7932 46.391C96.7932 43.9014 98.8845 42.1586 101.623 41.9097V40.1171H103.814V42.0092C106.403 42.5072 108.146 44.2997 108.494 46.7893H105.457C105.258 45.7935 104.66 45.0964 103.814 44.698V48.4823L104.611 48.6814C107.548 49.4283 108.793 50.8225 108.793 53.1628C108.793 55.503 107.001 57.4449 103.814 57.6939V59.4864H101.673V59.5362ZM101.673 48.1337V44.5487C100.577 44.7478 99.8803 45.3453 99.8803 46.3412C99.8803 47.2873 100.627 47.8848 101.673 48.1337ZM103.864 55.1545C105.158 55.0051 105.806 54.3578 105.806 53.4117C105.806 52.5155 105.059 51.8184 103.864 51.5196V55.1545Z" fill="#F2F7ED"/>
</g>
<path d="M101.216 78.4476V130.694C101.216 133.086 99.2567 135 96.8074 135H43.5101L38.2196 131.938L32.929 135H19.4088C16.9595 135 15 133.086 15 130.694V78.4476C15 76.0554 16.9595 74.1416 19.4088 74.1416H32.929L38.2196 77.9692L43.5101 74.1416H96.8074C99.2567 74.1416 101.216 76.0554 101.216 78.4476Z" fill="#081270"/>
<mask id="mask0_7_13776" style="mask-type:alpha" maskUnits="userSpaceOnUse" x="15" y="74" width="87" height="61">
<path d="M101.216 78.4475V130.694C101.216 133.086 99.2567 135 96.8074 135H43.5101L38.2196 131.938L32.929 135H19.4088C16.9595 135 15 133.086 15 130.694V78.4475C15 76.0553 16.9595 74.1415 19.4088 74.1415H32.929L38.2196 77.9691L43.5101 74.1415H96.8074C99.2567 74.1415 101.216 76.0553 101.216 78.4475Z" fill="#949CE3"/>
</mask>
<g mask="url(#mask0_7_13776)">
<path d="M87.3852 71.4384C82.6311 91.7811 38.2972 113.782 27.0201 140.206" stroke="#56A9B9" stroke-width="4"/>
<path d="M48.375 65.9999C56.125 102 -8 82.9999 1.89514 140.206" stroke="#56A9B9" stroke-width="4"/>
<path d="M108.375 101.875C103.25 127.25 62.125 116.5 52.7793 137.803" stroke="#56A9B9" stroke-width="4"/>
<circle cx="93.5339" cy="91.6559" r="5.30681" fill="#56A9B9"/>
<circle cx="75.0001" cy="110.461" r="5.30681" fill="#56A9B9"/>
<circle cx="21.0897" cy="123.036" r="5.30681" fill="#56A9B9"/>
<circle cx="17.8397" cy="76.8299" r="5.30681" fill="#56A9B9"/>
<circle cx="60.1365" cy="83.9833" r="5.30681" fill="#56A9B9"/>
</g>
<path d="M43.4121 74.1415H32.929V99.8818H43.4121V74.1415Z" fill="#FFE3AC"/>
<path d="M43.4121 109.26H32.929V135H43.4121V109.26Z" fill="#FFE3AC"/>
<path d="M32.929 99.8817V109.259L15 112.513V96.6282C15 94.236 17.5473 92.705 19.8007 93.6619L32.929 99.8817Z" fill="#FFE3AC"/>
<path d="M43.5101 99.8817V109.259L61.4392 112.513V96.6282C61.4392 94.236 58.8919 92.705 56.6385 93.6619L43.5101 99.8817Z" fill="#FFE3AC"/>
<path d="M32.929 109.259H18.3311C16.4696 109.259 15 110.695 15 112.513C15 114.905 17.5473 116.436 19.8007 115.479L32.929 109.259Z" fill="#997328"/>
<path d="M101.216 99.882H61.4392V109.26H101.216V99.882Z" fill="#FFE3AC"/>
<path d="M43.51 109.259H58.108C59.9694 109.259 61.439 110.695 61.439 112.513C61.439 114.905 58.8917 116.436 56.6384 115.479L43.51 109.259Z" fill="#997328"/>
<rect x="32.9292" y="99.882" width="10.581" height="9.37783" fill="#997328"/>
</g>
<defs>
<clipPath id="clip0_7_13776">
<rect width="120" height="120" fill="white" transform="translate(15 15)"/>
</clipPath>
<clipPath id="clip1_7_13776">
<rect width="63.5108" height="120" fill="white" transform="translate(71.489 15)"/>
</clipPath>
</defs>
</svg>
