<svg width="558" height="314" viewBox="0 0 558 314" fill="none" xmlns="http://www.w3.org/2000/svg">
<g clip-path="url(#clip0_555_12097)">
<path fill-rule="evenodd" clip-rule="evenodd" d="M518 83H358V314.002H358.883C376.497 314.002 393.329 306.945 405.724 294.532L428.558 271.665V271.534C440.954 259.121 457.785 252.064 475.4 252.064H475.531H558V123C558 100.909 540.091 83 518 83Z" fill="#D4E2FC"/>
<rect y="245" width="206" height="67" fill="#EFF3FE"/>
<rect x="223" y="83" width="123" height="236" fill="#D4E2FC"/>
<path d="M193.83 83H281.962V258H-54.771V218.684H67.2033C77.6889 218.684 87.5 213.517 93.4331 204.872L167.6 96.8111C173.533 88.1664 183.345 83 193.83 83Z" fill="#D4E2FC"/>
<path d="M38.4873 201.416V361.815H63.9539H79.6314H105.167H120.364H142.819H151.239H166.437H191.972H194.642V242.149H191.972L179.171 227.978L166.437 242.149V224.145H151.239V236.672H142.819V203.538L131.592 191.078L120.364 203.538V218.6H105.167V184.233H79.6314V234.276H63.9539V201.416H38.4873Z" fill="#5B91F5"/>
<path fill-rule="evenodd" clip-rule="evenodd" d="M346 186.428H320.93V304.665H346V186.428ZM358 304.665V199.872H371.888L385.45 184.784L399.011 199.872H413.629V213.257H459.539V240.087H493.941V204.275H499.401L516.954 184.784L534.449 204.275H539.909V237.915H572.374V252.064H566.344H475.531H475.4C457.785 252.064 440.954 259.121 428.558 271.534V271.665L405.724 294.532C401.797 298.465 397.423 301.861 392.721 304.665H358Z" fill="#5B91F5"/>
<path d="M420.769 175.783C435.02 175.783 446.572 164.231 446.572 149.98C446.572 135.729 435.02 124.176 420.769 124.176C406.518 124.176 394.965 135.729 394.965 149.98C394.965 164.231 406.518 175.783 420.769 175.783Z" fill="white"/>
<rect x="-2" y="258" width="51" height="56" fill="#5B91F5"/>
<path d="M233.658 97.7919C233.658 97.7919 238.497 128.381 245.466 139.459H312.088C312.088 139.459 321.794 127.39 320.096 100.295C320.096 100.295 312.198 80.0942 306.509 76.6543C306.509 76.6543 303.55 75.4181 298.852 75.4181C298.852 75.4181 296.632 68.7676 291.443 65.8164C291.443 65.8065 254.154 56.3844 233.658 97.7919Z" fill="#744C3A"/>
<path d="M239.197 122.039C237.537 122.039 236.197 123.375 236.197 125.03C236.197 129.586 237.357 134.073 239.577 138.061L242.855 143.974C243.735 145.559 245.405 146.536 247.215 146.536H248.524L242.576 124.621C242.166 123.096 240.776 122.039 239.197 122.039Z" fill="#FABDA5"/>
<path d="M318.354 122.039C320.013 122.039 321.354 123.375 321.354 125.03C321.354 129.587 320.193 134.074 317.973 138.062L314.695 143.974C313.815 145.56 312.145 146.537 310.335 146.537H309.026L315.005 124.602C315.405 123.086 316.784 122.039 318.354 122.039Z" fill="#FA9269"/>
<path d="M240.192 187.372C240.192 187.372 222.926 193.673 208.1 197.611C196.602 200.662 187.105 208.709 182.076 219.457C165.57 254.743 131.074 327.315 161.216 339.538H219.959L278.771 339.132V178.129L240.192 187.372Z" fill="#72335D"/>
<path d="M176.791 304.209C179.639 284.776 187.617 260.498 199.684 244.744C206.412 258.564 211.941 273.17 218.26 287.219C223.378 298.595 230.176 309.602 234.845 320.969C229.706 323.821 221.658 321.756 216.161 320.929C208.442 319.763 199.475 318.855 192.217 315.834C185.788 313.162 181.279 306.323 176.791 304.209Z" fill="#4C223E"/>
<path d="M317.347 187.372C317.347 187.372 334.612 193.673 349.437 197.611C360.935 200.662 369.033 209.476 375.461 219.457C395.935 251.262 431.626 328.425 405.454 339.132H278.776V178.129L317.347 187.372Z" fill="#72335D"/>
<path d="M351.337 199.027C351.337 199.027 344.709 210.593 344.709 342.134H278.776V178.129C278.776 178.129 295.001 177.949 351.337 199.027Z" fill="#72335D"/>
<path d="M207.346 201.711C207.346 201.711 212.855 210.594 212.855 342.125H278.777V178.13C278.777 178.13 255.264 177.522 207.346 201.711Z" fill="#72335D"/>
<path d="M303.302 204.002L278.77 233.914L254.236 204.002V149.314H303.302V204.002Z" fill="#FABDA5"/>
<path d="M263.376 175.509C263.376 175.509 287.639 195.958 303.306 198.95V162.776L263.376 175.509Z" fill="#FA9269"/>
<path d="M313.26 119.538C313.26 91.8899 297.814 79.4467 278.758 79.4467C259.704 79.4467 244.258 91.8899 244.258 119.538C244.258 165.193 259.704 179.571 278.758 179.571C297.814 179.571 313.26 165.193 313.26 119.538Z" fill="#FABDA5"/>
<path d="M264.312 123.628C263.037 123.628 261.904 124.76 261.904 126.033C261.904 126.74 262.188 127.306 262.613 127.73H266.011C266.436 127.306 266.719 126.74 266.719 126.033C266.719 124.76 265.728 123.628 264.312 123.628Z" fill="black"/>
<path d="M257.932 127.166C257.932 127.166 262.464 121.225 269.686 125.328V123.347C269.686 123.347 263.737 119.528 257.79 125.752L257.932 127.166Z" fill="black"/>
<path d="M292.064 123.628C293.339 123.628 294.471 124.76 294.471 126.033C294.471 126.74 294.188 127.306 293.764 127.73H290.365C289.94 127.306 289.657 126.74 289.657 126.033C289.657 124.76 290.648 123.628 292.064 123.628Z" fill="black"/>
<path d="M298.44 127.166C298.44 127.166 293.908 121.225 286.686 125.328V123.347C286.686 123.347 292.634 119.528 298.581 125.752L298.44 127.166Z" fill="black"/>
<path d="M245.482 139.456L249.332 122.706V115.018H240.424L245.482 139.456Z" fill="#744C3A"/>
<path d="M276.143 147.003L275.203 146.545C273.973 145.946 272.553 145.877 271.264 146.355L264.695 148.808C263.836 149.127 263.116 149.725 262.656 150.513L259.927 155.119C259.166 156.395 257.348 156.425 256.527 155.189C248.61 143.324 247.809 125.607 247.809 125.607H244.391C245.72 166.466 260.606 179.577 278.782 179.577V147.462L277.682 147.402C277.142 147.362 276.622 147.233 276.143 147.003Z" fill="#744C3A"/>
<path d="M281.412 147.003L282.351 146.544C283.581 145.946 285.001 145.876 286.291 146.354L292.859 148.807C293.719 149.126 294.439 149.725 294.899 150.512L297.628 155.119C298.388 156.395 300.208 156.425 301.027 155.188C308.944 143.323 309.745 125.606 309.745 125.606H313.164C311.834 166.465 296.948 179.576 278.772 179.576V147.461L279.872 147.401C280.412 147.361 280.932 147.232 281.412 147.003Z" fill="#744C3A"/>
<path d="M273.9 165.151C273.9 165.151 280.918 161.313 285.448 164.852C285.448 164.852 283.178 162.001 283.638 159.588C283.638 159.588 278.609 159.927 275.71 159.927C275.71 159.927 277.53 162.669 273.9 165.151Z" fill="#5C3C2E"/>
<path d="M254.624 122.102C256.103 121.753 257.593 121.414 259.063 121.055C261.761 120.387 264.671 120.457 267.45 120.507C268.319 120.527 270.109 121.245 270.819 121.095C271.689 120.906 271.919 119.679 271.828 119.051C271.689 118.064 271.279 118.034 270.149 117.875C268.39 117.625 266.6 117.755 264.841 117.645C262.181 117.486 259.492 117.486 256.883 117.974C254.863 118.353 254.503 119.51 253.554 120.906C253.104 121.534 253.793 122.292 254.624 122.102Z" fill="#3D281E"/>
<path d="M275.957 144.55C275.707 143.383 272.758 143.114 271.947 143.613C271.237 144.051 271.738 144.669 272.317 144.819C272.998 144.998 273.557 144.839 274.228 144.699C274.567 144.63 274.927 144.57 275.287 144.59C275.417 144.6 275.666 144.709 275.797 144.59C275.927 144.48 275.917 144.261 275.957 144.55Z" fill="#FA9269"/>
<path d="M281.589 144.55C281.838 143.383 284.788 143.114 285.597 143.613C286.307 144.051 285.807 144.669 285.227 144.819C284.548 144.998 283.988 144.839 283.318 144.699C282.978 144.63 282.618 144.57 282.258 144.59C282.129 144.6 281.878 144.709 281.749 144.59C281.619 144.48 281.629 144.261 281.589 144.55Z" fill="#FA9269"/>
<path d="M301.497 121.698C300.047 121.259 298.578 120.83 297.128 120.382C294.479 119.554 291.569 119.444 288.79 119.315C287.921 119.275 286.081 119.893 285.391 119.694C284.541 119.454 284.382 118.218 284.511 117.59C284.721 116.613 285.122 116.613 286.261 116.523C288.03 116.383 289.81 116.613 291.579 116.623C294.239 116.633 296.928 116.782 299.507 117.43C301.507 117.929 301.786 119.115 302.657 120.561C303.046 121.229 302.317 121.947 301.497 121.698Z" fill="#3D281E"/>
<path d="M278.776 224.715H285.235L299.861 207.476L289.413 200.706L278.776 224.715Z" fill="#E2E2E2"/>
<path d="M173.285 339.139C159.679 339.139 157.769 339.139 157.769 314.571L151.671 304.232C155.99 287.042 159.689 290.004 173.285 290.004C194.039 290.004 197.918 301.001 197.918 314.571C197.918 328.142 186.892 339.139 173.285 339.139Z" fill="#72335D"/>
<path d="M173.283 339.135H227.909V314.568H216.361C210.463 314.568 204.865 311.926 201.126 307.369L193.708 297.617L173.283 339.135Z" fill="#72335D"/>
<path d="M386.944 339.136H332.318V314.569H343.865C349.764 314.569 355.362 311.926 359.101 307.369L364.74 300.121L386.944 339.136Z" fill="#72335D"/>
<path d="M268.7 154.372L271.159 157.682C272.34 159.267 274.199 160.204 276.178 160.204H282.156C284.486 160.204 286.615 158.918 287.695 156.854L288.965 154.421L268.7 154.372Z" fill="#FABDA5"/>
<path d="M290.421 154.084C288.392 155.032 286.162 156.368 283.723 155.789L281.973 155.45C280.803 155.45 279.933 155.45 279.064 155.789H278.774H278.483C277.614 155.45 276.445 155.111 275.575 155.45L273.825 155.789C271.306 156.278 269.207 155.061 267.126 154.084C267.837 154.294 268.127 154.373 268.707 154.373C269.286 154.373 269.456 154.433 270.046 154.084L272.376 153.057C274.416 152.379 276.455 152.379 278.495 152.718H278.784H279.074C281.114 152.04 283.153 152.04 285.193 153.057L287.522 154.084C288.101 154.423 288.392 154.423 288.981 154.423C289.551 154.423 290.431 154.084 290.421 154.084Z" fill="#FA9269"/>
<path d="M353.514 236.498H204.043C198.524 236.498 194.045 240.965 194.045 246.468V347.253C194.045 348.281 194.879 349.115 195.907 349.115H361.65C362.677 349.115 363.512 348.281 363.512 347.253V246.468C363.512 240.955 359.033 236.498 353.514 236.498Z" fill="#AFAFAF"/>
<path d="M278.777 224.716H272.319L257.693 207.477L268.14 200.707L278.777 224.716Z" fill="#E2E2E2"/>
<path d="M303.302 181.027C303.302 200.041 289.765 215.106 278.768 224.229C267.762 215.116 254.235 200.041 254.235 181.027H246.237C246.237 202.344 260.294 218.935 272.27 229.205C274.55 231.159 276.759 232.884 278.778 234.369C280.798 232.884 282.998 231.159 285.287 229.205C297.264 218.935 311.32 202.354 311.32 181.027H303.302Z" fill="#4C223E"/>
<path d="M268.125 200.706L254.09 218.085L240.193 187.376L252.25 171.313C252.699 170.715 253.619 170.805 253.949 171.473L268.125 200.706Z" fill="white"/>
<path d="M289.414 200.707L303.451 218.086L317.348 187.376L305.291 171.314C304.84 170.716 303.92 170.805 303.591 171.473L289.414 200.707Z" fill="white"/>
<path d="M296.131 90.4308C296.131 90.4308 303.308 94.8677 303.308 108.657L308.238 113.094V122.695L312.086 139.446L319.064 105.765L309.717 85.984L303.308 87.4596L296.131 90.4308Z" fill="#744C3A"/>
<path d="M242.708 114.128H247.01V147.447H245.78C245.371 147.448 244.967 147.367 244.591 147.207C244.023 146.976 243.539 146.581 243.198 146.072C242.858 145.564 242.678 144.966 242.68 144.355V114.128H242.708Z" fill="black"/>
<path d="M235.678 136.292L235.322 122.19C234.968 122.181 234.617 122.243 234.288 122.374C233.959 122.505 233.661 122.701 233.412 122.95C233.161 123.199 232.965 123.497 232.834 123.824C232.703 124.152 232.64 124.503 232.649 124.855V133.47L235.678 136.292Z" fill="black"/>
<path d="M234.667 135.572L242.683 143.569V114.128H234.667V135.572Z" fill="#333333"/>
<path d="M311.807 147.562H310.59V114.244H314.867V144.537C314.849 145.342 314.524 146.11 313.958 146.682C313.381 147.242 312.61 147.557 311.807 147.562Z" fill="black"/>
<path d="M322.86 135.713V121.573C323.203 121.571 323.542 121.638 323.858 121.768C324.175 121.899 324.462 122.09 324.704 122.332C325.187 122.824 325.46 123.483 325.466 124.171V133.114L322.86 135.713Z" fill="black"/>
<path d="M322.867 135.701L314.851 143.698V114.257H322.867V135.701Z" fill="#333333"/>
<path d="M316.764 138.641V144.531C316.761 151.338 314.048 157.865 309.222 162.678C304.397 167.491 297.853 170.197 291.029 170.2H282.276" stroke="#333333" stroke-width="0.815644" stroke-miterlimit="10"/>
<path d="M281.688 173.219C282.444 173.219 283.183 172.996 283.812 172.577C284.44 172.158 284.929 171.563 285.218 170.866C285.508 170.17 285.583 169.403 285.437 168.664C285.289 167.925 284.925 167.245 284.39 166.712C283.857 166.179 283.175 165.816 282.434 165.669C281.693 165.522 280.925 165.598 280.226 165.886C279.528 166.175 278.931 166.663 278.511 167.29C278.091 167.917 277.867 168.654 277.867 169.408C277.871 170.417 278.274 171.385 278.991 172.099C279.706 172.813 280.676 173.216 281.688 173.219Z" fill="black"/>
<path d="M240.191 116.547C240.191 116.547 267.504 131.323 303.306 87.4824L291.188 76.6445H269.443L251.928 85.0197L240.191 116.547Z" fill="#744C3A"/>
<path d="M240.191 110.869C240.191 110.869 262.996 119.732 292.648 95.5937C292.648 95.5937 271.924 119.234 243.03 115.545L240.191 110.869Z" fill="#99644C"/>
</g>
<defs>
<clipPath id="clip0_555_12097">
<rect width="558" height="274" fill="white" transform="translate(0 40)"/>
</clipPath>
</defs>
</svg>
