<svg width="150" height="150" viewBox="0 0 150 150" fill="none" xmlns="http://www.w3.org/2000/svg">
<g clip-path="url(#clip0_7_13758)">
<path d="M63.4112 125.657H131.682C133.65 125.657 135.231 124.076 135.231 122.108V18.8385C135.231 16.8707 133.65 15.2893 131.682 15.2893H63.4112C61.4434 15.2893 59.8619 16.8752 59.8619 18.8385V122.108C59.8619 124.076 61.4613 125.657 63.4112 125.657Z" fill="#757575"/>
<path d="M64.6692 125.657H130.447C132.338 125.657 133.87 124.129 133.87 122.234V18.7127C133.87 16.8213 132.343 15.2893 130.447 15.2893H64.6692C62.7777 15.2893 61.2457 16.8168 61.2457 18.7127V122.234C61.2457 124.125 62.7732 125.657 64.6692 125.657Z" fill="#AFAFAF"/>
<path d="M133.866 118.558V22.2799C133.866 21.0803 132.882 20.0964 131.682 20.0964H63.4111C62.2116 20.0964 61.2277 21.0803 61.2277 22.2799V118.558C61.2277 119.758 62.2116 120.742 63.4111 120.742H131.682C132.882 120.724 133.866 119.758 133.866 118.558Z" fill="white"/>
<path opacity="0.25" d="M133.866 118.558V22.2799C133.866 21.0803 132.882 20.0964 131.682 20.0964H63.4111C62.2116 20.0964 61.2277 21.0803 61.2277 22.2799V118.558C61.2277 119.758 62.2116 120.742 63.4111 120.742H131.682C132.882 120.724 133.866 119.758 133.866 118.558Z" fill="#141414"/>
<path d="M93.5347 17.8727C93.5347 18.3444 93.9165 18.7263 94.3883 18.7263C94.86 18.7263 95.2419 18.3444 95.2419 17.8727C95.2419 17.4009 94.86 17.019 94.3883 17.019C93.9165 17.019 93.5347 17.4009 93.5347 17.8727Z" fill="#141414"/>
<path d="M101.563 17.8727C101.563 18.3444 101.181 18.7263 100.71 18.7263H97.5602C97.0884 18.7263 96.7065 18.3444 96.7065 17.8727C96.7065 17.4009 97.0884 17.019 97.5602 17.019H100.71C101.181 17.019 101.563 17.4009 101.563 17.8727Z" fill="#141414"/>
<path d="M130.716 22.9763H64.3771V89.3155H130.716V22.9763Z" fill="white"/>
<path d="M130.716 32.3795H64.3771V37.9639H130.716V32.3795Z" fill="#757575"/>
<path d="M70.33 51.8104H124.768" stroke="#EEEEEE" stroke-width="1.5" stroke-miterlimit="10" stroke-linecap="round"/>
<path d="M70.33 58.9448H124.768" stroke="#EEEEEE" stroke-width="1.5" stroke-miterlimit="10" stroke-linecap="round"/>
<path d="M70.33 66.0748H124.768" stroke="#EEEEEE" stroke-width="1.5" stroke-miterlimit="10" stroke-linecap="round"/>
<path d="M70.33 78.2859H124.768" stroke="#EEEEEE" stroke-width="1.5" stroke-miterlimit="10" stroke-linecap="round"/>
<path d="M94.0873 60.8003H70.3254V64.2192H94.0873V60.8003Z" fill="#CBCBCB"/>
<path d="M94.0873 53.6659H70.3254V57.0848H94.0873V53.6659Z" fill="#CBCBCB"/>
<path d="M94.0873 46.536H70.3254V49.955H94.0873V46.536Z" fill="#CBCBCB"/>
<path d="M124.768 60.8003H116.915V64.2192H124.768V60.8003Z" fill="#CBCBCB"/>
<path d="M124.768 67.9303H116.915V71.3492H124.768V67.9303Z" fill="#CBCBCB"/>
<path d="M124.768 53.6659H116.915V57.0848H124.768V53.6659Z" fill="#CBCBCB"/>
<path d="M124.768 46.536H116.915V49.955H124.768V46.536Z" fill="#CBCBCB"/>
<path d="M83.0846 26.0089H67.6477V29.4279H83.0846V26.0089Z" fill="#CBCBCB"/>
<path d="M73.7443 80.5233H67.6477V86.6199H73.7443V80.5233Z" fill="#EEEEEE"/>
<path d="M98.7552 80.5233H75.8379V86.6199H98.7552V80.5233Z" fill="#EEEEEE"/>
<path d="M123.766 80.5233H100.849V86.6199H123.766V80.5233Z" fill="#757575"/>
<path d="M110.292 83.794L111.488 84.989L114.322 82.1497" stroke="white" stroke-miterlimit="10"/>
<path d="M130.716 91.9707H64.3771V111.869H130.716V91.9707Z" fill="white"/>
<path d="M70.33 102.228H124.768" stroke="#EEEEEE" stroke-width="2.49" stroke-miterlimit="10" stroke-linecap="round"/>
<path d="M94.0873 104.083H70.3254V107.502H94.0873V104.083Z" fill="#CBCBCB"/>
<path d="M94.0873 96.9531H70.3254V100.372H94.0873V96.9531Z" fill="#CBCBCB"/>
<path d="M124.768 104.083H116.915V107.502H124.768V104.083Z" fill="#CBCBCB"/>
<path d="M124.768 96.9531H116.915V100.372H124.768V96.9531Z" fill="#CBCBCB"/>
<path opacity="0.3" d="M86.0365 20.0964H132.366C133.18 20.0964 133.866 20.7638 133.866 21.5957V73.831C133.866 46.0724 112.959 23.2046 86.0365 20.0964Z" fill="#EDF5F7"/>
<path d="M41.4968 131.731H81.9008V135.289H41.4968V131.731Z" fill="#5A0A00"/>
<path d="M47.7184 77.5762C33.3417 77.5762 21.6967 89.2257 21.6967 103.598C21.6967 117.97 33.3462 129.62 47.7184 129.62C62.0905 129.62 73.7446 117.97 73.7446 103.598C73.7446 89.2257 62.095 77.5762 47.7184 77.5762Z" fill="#FFC043"/>
<path d="M47.7139 126.057C60.1183 126.057 70.1684 116.002 70.1684 103.602C70.1684 91.2024 60.1138 81.1477 47.7139 81.1477C35.3141 81.1477 25.2594 91.2024 25.2594 103.602C25.2594 116.002 35.3141 126.057 47.7139 126.057Z" fill="#FFF2D9"/>
<path d="M47.7138 122.49C58.1459 122.49 66.6012 114.034 66.6012 103.602C66.6012 93.1704 58.1459 84.7151 47.7138 84.7151C37.2818 84.7151 28.8265 93.1704 28.8265 103.602C28.8265 114.034 37.2818 122.49 47.7138 122.49Z" fill="#FFC043"/>
<path d="M47.7184 118.922C56.1782 118.922 63.0385 112.062 63.0385 103.602C63.0385 95.1426 56.1782 88.2822 47.7184 88.2822C39.2587 88.2822 32.3983 95.1426 32.3983 103.602C32.3983 112.062 39.2587 118.922 47.7184 118.922Z" fill="#FFF2D9"/>
<path d="M47.7183 115.247C54.1518 115.247 59.3679 110.031 59.3679 103.598C59.3679 97.1643 54.1518 91.9482 47.7183 91.9482C41.2848 91.9482 36.0687 97.1643 36.0687 103.598C36.0687 110.031 41.2848 115.247 47.7183 115.247Z" fill="#FFC043"/>
<path d="M47.7138 111.68C52.1751 111.68 55.7917 108.063 55.7917 103.598C55.7917 99.132 52.1751 95.5154 47.7138 95.5154C43.2526 95.5154 39.6315 99.132 39.6315 103.598C39.6315 108.063 43.2481 111.68 47.7138 111.68Z" fill="#FFF2D9"/>
<path d="M47.7139 108.113C50.2074 108.113 52.2246 106.091 52.2246 103.602C52.2246 101.113 50.2029 99.0916 47.7139 99.0916C45.225 99.0916 43.2032 101.113 43.2032 103.602C43.2032 106.091 45.225 108.113 47.7139 108.113Z" fill="#FFC043"/>
<path d="M80.4025 83.4525C91.5264 83.4525 100.656 92.4783 100.656 103.706C100.656 114.933 91.6298 123.959 80.4025 123.959C69.1752 123.959 60.1494 114.933 60.1494 103.706C60.1494 92.4783 69.1752 83.4525 80.4025 83.4525Z" fill="#FFC043"/>
<path d="M80.407 89.2257C88.3815 89.2257 94.8869 95.7311 94.8869 103.706C94.8869 111.68 88.3815 118.186 80.407 118.186C72.4324 118.186 65.927 111.68 65.927 103.706C65.927 95.7311 72.4324 89.2257 80.407 89.2257Z" fill="#FFF2D9"/>
<path d="M80.407 94.9943C85.1288 94.9943 89.0105 98.876 89.0105 103.598C89.0105 108.32 85.1288 112.201 80.407 112.201C75.6852 112.201 71.8035 108.32 71.8035 103.598C71.8035 98.876 75.5818 94.9943 80.407 94.9943Z" fill="#FFC043"/>
<path d="M80.4069 100.871C81.9794 100.871 83.2418 102.129 83.2418 103.706C83.2418 105.283 81.9839 106.541 80.4069 106.541C78.83 106.541 77.572 105.283 77.572 103.706C77.572 102.129 78.83 100.871 80.4069 100.871Z" fill="#FFF2D9"/>
<path d="M80.4025 123.959C91.5893 123.959 100.656 114.892 100.656 103.706C100.656 92.5188 91.5893 83.4525 80.4025 83.4525C69.2157 83.4525 60.1494 92.5188 60.1494 103.706C60.1494 114.892 69.2157 123.959 80.4025 123.959Z" fill="#FFC043"/>
<path d="M80.4024 120.284C71.2733 120.284 63.7166 112.835 63.7166 103.598C63.7166 94.3608 71.1654 86.9119 80.4024 86.9119C89.6394 86.9119 97.0883 94.3608 97.0883 103.598C96.985 112.83 89.5316 120.284 80.4024 120.284Z" fill="#FFF2D9"/>
<path d="M80.407 116.717C73.1647 116.717 67.3961 110.84 67.3961 103.706C67.3961 96.5713 73.2726 90.6948 80.407 90.6948C87.5414 90.6948 93.4178 96.5713 93.4178 103.706C93.4178 110.84 87.5414 116.717 80.407 116.717Z" fill="#FFC043"/>
<path d="M80.4025 113.149C75.155 113.149 70.9589 108.953 70.9589 103.706C70.9589 98.4581 75.155 94.262 80.4025 94.262C85.65 94.262 89.8462 98.4581 89.8462 103.706C89.8462 108.953 85.65 113.149 80.4025 113.149Z" fill="#FFF2D9"/>
<path d="M80.407 109.582C77.1543 109.582 74.5305 106.958 74.5305 103.706C74.5305 100.453 77.1543 97.8292 80.407 97.8292C83.6597 97.8292 86.2834 100.453 86.2834 103.706C86.2834 106.958 83.6597 109.582 80.407 109.582Z" fill="#FFC043"/>
<path d="M80.4069 105.907C79.1489 105.907 78.0977 104.856 78.0977 103.598C78.0977 102.34 79.1489 101.289 80.4069 101.289C81.6649 101.289 82.7162 102.34 82.7162 103.598C82.7162 104.856 81.6649 105.907 80.4069 105.907Z" fill="#FFF2D9"/>
<path d="M92.2632 87.8598H86.7012L84.0775 84.1848H92.2632C94.258 84.1848 95.9337 82.5045 95.9337 80.5143H99.7121C99.7121 84.6071 96.3561 87.8598 92.2632 87.8598Z" fill="#FFC043"/>
<path d="M66.1824 99.848C66.3778 99.768 66.4888 99.492 66.3403 99.3017L45.2165 59.4161L43.354 60.422L65.5776 99.7598C65.721 99.8816 65.9965 99.9971 66.1868 99.8486L66.1824 99.848Z" fill="#672A16"/>
<path d="M45.2106 59.3519L35.5756 41.1419L33.1998 42.4556L43.3494 60.4214L45.2112 59.3475L45.2106 59.3519ZM39.2902 62.4644L32.5703 42.9709L30.0301 43.8932L37.2696 63.2109L39.2862 62.4594L39.2902 62.4644Z" fill="#FA9269"/>
<path d="M47.7281 89.4323C41.4338 95.7266 55.2848 118.711 66.0897 107.794C77.0025 96.9846 54.0223 83.2414 47.7281 89.4323Z" fill="#FFFAF0"/>
<path d="M60.1054 107.691C63.2907 107.691 65.8785 105.107 65.8785 101.917C65.8785 98.7276 63.2952 96.1443 60.1054 96.1443C56.9156 96.1443 54.3323 98.7276 54.3323 101.917C54.3323 105.107 56.9156 107.691 60.1054 107.691Z" fill="#FA9269"/>
<path d="M53.7797 105.709C53.9752 105.629 54.0919 105.417 54.0748 105.153L39.2909 62.4599L37.2742 63.2114L53.227 105.419C53.3127 105.679 53.5241 105.8 53.7836 105.714L53.7797 105.709Z" fill="#672A16"/>
<path d="M104.96 103.602V107.592C104.96 108.221 104.96 108.85 104.856 109.375C104.753 110.108 104.645 110.741 104.438 111.473C104.335 111.891 104.227 112.314 104.021 112.839C102.969 115.778 101.082 118.298 98.4586 120.185L84.2931 130.051L81.8806 131.731H41.4732L39.6896 130.473L24.8952 120.189C22.2714 118.406 20.3845 115.782 19.2299 112.844C19.0187 112.426 18.9154 112.004 18.812 111.478C18.6009 110.849 18.4976 110.112 18.3942 109.38C18.2909 108.751 18.2909 108.122 18.2909 107.596V103.607H104.96V103.602Z" fill="#AB1300"/>
</g>
<defs>
<clipPath id="clip0_7_13758">
<rect width="120.463" height="120" fill="white" transform="translate(14.7687 15.2893)"/>
</clipPath>
</defs>
</svg>
