<svg width="48" height="48" viewBox="0 0 48 48" fill="none" xmlns="http://www.w3.org/2000/svg">
<path d="M46.6666 37.94C46.6666 39.6966 46.1463 41.34 45.2448 42.7051C43.689 45.0954 40.9948 46.6666 37.9348 46.6666H1.33325V16.7106H32.2578L46.6666 9.01937V37.94Z" fill="#276EF1"/>
<path d="M46.6667 16.1543V37.9401C45.7034 40.7888 43.0297 42.7052 40.0161 42.7052H9.27184C9.27184 40.5158 7.49457 38.7385 5.30518 38.7385V24.6388C7.49457 24.6388 9.27184 22.8616 9.27184 20.6722H40.32C43.1843 20.6722 45.7343 18.8588 46.6667 16.1543Z" fill="#A0BFF8"/>
<path d="M32.5102 43.8539C39.236 43.8539 44.6884 38.4085 44.6884 31.6912C44.6884 24.9739 39.236 19.5285 32.5102 19.5285C25.7844 19.5285 20.332 24.9739 20.332 31.6912C20.332 38.4085 25.7844 43.8539 32.5102 43.8539Z" fill="#276EF1"/>
<path d="M13.3621 34.1588C14.7278 34.1588 15.8349 33.0518 15.8349 31.6861C15.8349 30.3205 14.7278 29.2134 13.3621 29.2134C11.9965 29.2134 10.8894 30.3205 10.8894 31.6861C10.8894 33.0518 11.9965 34.1588 13.3621 34.1588Z" fill="white"/>
<path d="M32.2887 1.33334H38.9651C43.2202 1.33334 46.6666 4.77455 46.6666 9.0194C46.6666 13.2642 43.2202 16.7055 38.9651 16.7055H32.2578L32.2887 1.33334Z" fill="black"/>
</svg>
