<svg width="48" height="48" viewBox="0 0 48 48" fill="none" xmlns="http://www.w3.org/2000/svg">
<path d="M35.0448 40.775V42.6667H12.9602V40.775H16.5044C17.3802 40.775 18.1581 40.2131 18.4466 39.3729L20.0435 34.7494H27.9563L29.5532 39.3729C29.8417 40.2131 30.6248 40.775 31.4954 40.775H35.0448Z" fill="black"/>
<path d="M46.6666 9.17233H1.33325V30.8769H46.6666V9.17233Z" fill="#A0BFF8"/>
<path d="M46.6666 9.17238V7.39195C46.6666 6.25693 45.7599 5.33334 44.6472 5.33334H3.35265C2.23992 5.33334 1.33325 6.25693 1.33325 7.39752V9.17795H46.6666V9.17238Z" fill="#276EF1"/>
<path d="M1.33325 30.8825V34.766C1.33325 35.9066 2.23992 36.8302 3.35265 36.8302H44.642C45.7599 36.8302 46.6614 35.9066 46.6614 34.766V30.8825H1.33325Z" fill="#276EF1"/>
<path d="M24 35.1444C24.7027 35.1444 25.2724 34.564 25.2724 33.848C25.2724 33.1321 24.7027 32.5517 24 32.5517C23.2972 32.5517 22.7275 33.1321 22.7275 33.848C22.7275 34.564 23.2972 35.1444 24 35.1444Z" fill="white"/>
<path d="M43.2665 9.17233H4.73315V27.6331H43.2665V9.17233Z" fill="white"/>
</svg>
