<svg width="150" height="150" viewBox="0 0 150 150" fill="none" xmlns="http://www.w3.org/2000/svg">
<path d="M127.014 67.0952L75.2728 15L22.9377 67.0952L74.9729 121.355L127.014 67.0952Z" fill="#EEEEEE"/>
<path d="M22.9019 92.8249L116.824 106.961L120.033 85.6338C112.776 84.5422 108.062 78.1608 109.153 70.9097C110.245 63.6586 117.058 59.0104 123.883 60.042L127.092 38.7145L33.1757 24.5782L29.967 45.9057C37.2241 46.9972 41.9382 53.3787 40.8467 60.6298C39.8211 67.455 32.9418 72.529 26.1106 71.4974L22.9019 92.8249Z" fill="#7356BF"/>
<path fill-rule="evenodd" clip-rule="evenodd" d="M43.4856 31.1875H27.3401V52.7549C34.6812 52.7549 40.2889 58.3626 40.2889 65.6977C40.2889 72.6009 34.2433 78.6405 27.3401 78.6405V100.208H43.4856V97.431C43.4856 97.1011 43.7555 96.8372 44.0854 96.8372C44.4153 96.8372 44.6792 97.1071 44.6792 97.431V100.208H104.709V97.431C104.709 97.1011 104.979 96.8372 105.303 96.8372C105.627 96.8372 105.897 97.1011 105.897 97.431V100.208H122.318V78.6405C114.977 78.6405 109.363 73.0328 109.363 65.6977C109.363 58.3626 115.409 52.7549 122.318 52.7549V31.1875H105.897V34.0124C105.897 34.3422 105.633 34.6061 105.303 34.6061C104.973 34.6061 104.709 34.3362 104.709 34.0124V31.1875H44.6792V34.0124C44.6792 34.3422 44.4153 34.6061 44.0854 34.6061C43.7555 34.6061 43.4856 34.3362 43.4856 34.0124V31.1875ZM44.6792 39.7761C44.6792 39.4462 44.4153 39.1823 44.0854 39.1823C43.7555 39.1823 43.4856 39.4522 43.4856 39.7761V45.5398C43.4856 45.8696 43.7555 46.1335 44.0854 46.1335C44.4153 46.1335 44.6792 45.8636 44.6792 45.5398V39.7761ZM44.6792 51.3035C44.6792 50.9736 44.4153 50.7097 44.0854 50.7097C43.7555 50.7097 43.4856 50.9796 43.4856 51.3035V57.0671C43.4856 57.397 43.7555 57.6609 44.0854 57.6609C44.4153 57.6609 44.6792 57.391 44.6792 57.0671V51.3035ZM44.6792 62.8308C44.6792 62.501 44.4153 62.2371 44.0854 62.2371C43.7555 62.2371 43.4856 62.507 43.4856 62.8308V68.5945C43.4856 68.9244 43.7555 69.1883 44.0854 69.1883C44.4153 69.1883 44.6792 68.9244 44.6792 68.5945V62.8308ZM44.6792 74.3582C44.6792 74.0284 44.4153 73.7645 44.0854 73.7645C43.7555 73.7645 43.4856 74.0344 43.4856 74.3582V80.1219C43.4856 80.4518 43.7555 80.7157 44.0854 80.7157C44.4153 80.7157 44.6792 80.4518 44.6792 80.1219V74.3582ZM44.6792 85.8856C44.6792 85.5558 44.4153 85.2919 44.0854 85.2919C43.7555 85.2919 43.4856 85.5558 43.4856 85.8856V91.6493C43.4856 91.9792 43.7555 92.2431 44.0854 92.2431C44.4153 92.2431 44.6792 91.9732 44.6792 91.6493V85.8856ZM105.303 39.1823C105.633 39.1823 105.897 39.4522 105.897 39.7761V45.5398C105.897 45.8696 105.633 46.1335 105.303 46.1335C104.973 46.1335 104.709 45.8636 104.709 45.5398V39.7761C104.709 39.4462 104.979 39.1823 105.303 39.1823ZM105.303 50.7097C105.633 50.7097 105.897 50.9796 105.897 51.3035V57.0671C105.897 57.397 105.633 57.6609 105.303 57.6609C104.973 57.6609 104.709 57.391 104.709 57.0671V51.3035C104.709 50.9736 104.979 50.7097 105.303 50.7097ZM105.303 62.2371C105.633 62.2371 105.897 62.507 105.897 62.8308V68.5945C105.897 68.9244 105.633 69.1883 105.303 69.1883C104.973 69.1883 104.709 68.9244 104.709 68.5945V62.8308C104.709 62.501 104.979 62.2371 105.303 62.2371ZM105.303 73.7645C105.633 73.7645 105.897 74.0284 105.897 74.3582V80.1219C105.897 80.4518 105.633 80.7157 105.303 80.7157C104.973 80.7157 104.709 80.4518 104.709 80.1219V74.3582C104.709 74.0284 104.979 73.7645 105.303 73.7645ZM105.303 85.2919C105.633 85.2919 105.897 85.5617 105.897 85.8856V91.6493C105.897 91.9792 105.633 92.2431 105.303 92.2431C104.973 92.2431 104.709 91.9732 104.709 91.6493V85.8856C104.709 85.5558 104.979 85.2919 105.303 85.2919Z" fill="#957FCE"/>
<path d="M74.6673 81.5134C83.4118 81.5134 90.4949 74.4242 90.4949 65.6857C90.4949 56.9472 83.4058 49.858 74.6673 49.858C65.9288 49.858 58.8396 56.9472 58.8396 65.6857C58.8396 74.4242 65.9288 81.5134 74.6673 81.5134Z" fill="white"/>
<path d="M76.6884 45.6717L77.1262 46.1815C77.8759 47.0512 79.1234 47.3031 80.149 46.7813L80.7487 46.4754C82.1162 45.7857 83.7715 46.4754 84.2513 47.9268L84.4612 48.5686C84.8211 49.6661 85.8767 50.3678 87.0222 50.2839L87.694 50.2359C89.2173 50.1219 90.4888 51.3874 90.3749 52.9168L90.3269 53.5886C90.2369 54.7341 90.9506 55.7957 92.0362 56.1555L92.678 56.3654C94.1294 56.8453 94.8191 58.5066 94.1294 59.868L93.8235 60.4678C93.3017 61.4934 93.5536 62.7409 94.4233 63.4906L94.9331 63.9284C96.0966 64.924 96.0966 66.7233 94.9331 67.7189L94.4233 68.1567C93.5536 68.9064 93.3017 70.1539 93.8235 71.1795L94.1294 71.7793C94.8191 73.1467 94.1294 74.8081 92.678 75.2879L92.0362 75.4978C90.9446 75.8577 90.2369 76.9132 90.3269 78.0648L90.3749 78.7365C90.4888 80.2659 89.2233 81.5374 87.694 81.4174L87.0222 81.3694C85.8767 81.2795 84.8151 81.9932 84.4612 83.0848L84.2513 83.7265C83.7715 85.1779 82.1162 85.8676 80.7487 85.1779L80.149 84.872C79.1234 84.3503 77.8759 84.6022 77.1262 85.4718L76.6884 85.9816C75.6928 87.1451 73.8935 87.1451 72.8979 85.9816L72.46 85.4718C71.7103 84.6022 70.4628 84.3503 69.4373 84.872L68.8375 85.1779C67.476 85.8676 65.8147 85.1779 65.3349 83.7265L65.125 83.0848C64.7651 81.9872 63.7095 81.2855 62.558 81.3694L61.8863 81.4174C60.3629 81.5314 59.0914 80.2659 59.2053 78.7365L59.2593 78.0648C59.3493 76.9192 58.6356 75.8577 57.55 75.4978L56.9083 75.2879C55.4568 74.8081 54.7671 73.1467 55.4568 71.7793L55.7627 71.1795C56.2845 70.1539 56.0326 68.9064 55.163 68.1567L54.6532 67.7189C53.4896 66.7233 53.4896 64.924 54.6532 63.9284L55.163 63.4906C56.0326 62.7409 56.2845 61.4934 55.7627 60.4678L55.4568 59.868C54.7671 58.5006 55.4568 56.8393 56.9083 56.3654L57.55 56.1555C58.6476 55.7957 59.3493 54.7401 59.2593 53.5886L59.2053 52.9168C59.0914 51.3874 60.3569 50.1159 61.8863 50.2359L62.558 50.2839C63.7036 50.3738 64.7651 49.6601 65.125 48.5686L65.3349 47.9268C65.8147 46.4694 67.47 45.7857 68.8375 46.4754L69.4373 46.7813C70.4628 47.3031 71.7103 47.0512 72.46 46.1815L72.8979 45.6717C73.8935 44.5082 75.6868 44.5082 76.6884 45.6717Z" fill="white"/>
<path d="M127.014 129C127.014 132.314 124.328 135 121.014 135H28.9377C25.624 135 22.9377 132.314 22.9377 129V67.0952L74.9789 120.522L127.014 67.0952V129Z" fill="#CBCBCB"/>
<path d="M22.9377 115.784V129C22.9377 132.314 25.624 135 28.9377 135H121.014C124.328 135 127.014 132.314 127.014 129V115.814C118.839 111.387 106.4 104.712 95.6946 99.2543L74.9789 120.522L54.2092 99.1943C43.5035 104.658 31.0945 111.339 22.9377 115.784Z" fill="#AFAFAF"/>
<path d="M22.9377 129C22.9377 132.314 25.624 135 28.9377 135H121.014C124.328 135 127.014 132.314 127.014 129V119.334C127.014 119.334 79.3152 88.9924 74.9789 88.9924C70.3068 88.9924 22.9377 119.334 22.9377 119.334V129Z" fill="#E2E2E2"/>
<path d="M73.6729 75.5362V73.644C70.9343 73.1461 68.9924 71.3038 68.7932 68.7146H71.8306C71.9799 69.81 72.6272 70.6067 73.6729 70.9552V67.0714L72.9758 66.8723C70.1874 66.1254 68.7932 64.7312 68.7932 62.3909C68.7932 59.9013 70.8845 58.1586 73.6231 57.9096V56.1171H75.814V58.0092C78.4032 58.5071 80.1459 60.2996 80.4945 62.7893H77.4571C77.2579 61.7934 76.6604 61.0963 75.814 60.698V64.4822L76.6106 64.6814C79.5484 65.4283 80.7932 66.8225 80.7932 69.1627C80.7932 71.503 79.0007 73.4449 75.814 73.6938V75.4864H73.6729V75.5362ZM73.6729 64.1337V60.5486C72.5774 60.7478 71.8803 61.3453 71.8803 62.3411C71.8803 63.2872 72.6272 63.8847 73.6729 64.1337ZM75.8638 71.1544C77.1584 71.005 77.8057 70.3577 77.8057 69.4117C77.8057 68.5154 77.0588 67.8183 75.8638 67.5196V71.1544Z" fill="#4E7C19"/>
</svg>
