<svg width="558" height="314" viewBox="0 0 558 314" fill="none" xmlns="http://www.w3.org/2000/svg">
<g clip-path="url(#clip0_555_12000)">
<g clip-path="url(#clip1_555_12000)">
<path fill-rule="evenodd" clip-rule="evenodd" d="M0 83H363.237C416.678 83 460 126.322 460 179.763V218.318H393.095C386.587 218.318 380.956 222.559 379.33 228.795L355.125 319H274.405C270.465 316.019 265.627 314.363 260.604 314.363H140.116C134.044 314.363 128.243 311.944 123.97 307.688L116.099 299.848V299.803C111.827 295.547 106.025 293.128 99.9533 293.128H99.9083H68.6057H0V83Z" fill="#D4E2FC"/>
<path d="M342.257 249.697H74.1809C66.6612 249.697 60.6455 243.681 60.6455 236.161V84.0067C60.6455 76.4867 66.6612 70.4708 74.1809 70.4708H342.257C349.777 70.4708 355.793 76.4867 355.793 84.0067V236.286C355.918 243.806 349.777 249.697 342.257 249.697Z" fill="#757575"/>
<path d="M343.26 82.8786H73.0527V236.412H343.26V82.8786Z" fill="white"/>
<path d="M106.39 107.444C108.12 107.444 109.523 106.097 109.523 104.436C109.523 102.775 108.12 101.428 106.39 101.428C104.659 101.428 103.256 102.775 103.256 104.436C103.256 106.097 104.659 107.444 106.39 107.444Z" fill="#CBCBCB"/>
<path d="M106.39 118.849C108.12 118.849 109.523 117.502 109.523 115.841C109.523 114.18 108.12 112.833 106.39 112.833C104.659 112.833 103.256 114.18 103.256 115.841C103.256 117.502 104.659 118.849 106.39 118.849Z" fill="black"/>
<path d="M106.39 130.38C108.12 130.38 109.523 129.033 109.523 127.372C109.523 125.711 108.12 124.364 106.39 124.364C104.659 124.364 103.256 125.711 103.256 127.372C103.256 129.033 104.659 130.38 106.39 130.38Z" fill="#CBCBCB"/>
<path d="M106.39 141.911C108.12 141.911 109.523 140.564 109.523 138.903C109.523 137.241 108.12 135.895 106.39 135.895C104.659 135.895 103.256 137.241 103.256 138.903C103.256 140.564 104.659 141.911 106.39 141.911Z" fill="#CBCBCB"/>
<path d="M106.39 153.316C108.12 153.316 109.523 151.969 109.523 150.308C109.523 148.646 108.12 147.3 106.39 147.3C104.659 147.3 103.256 148.646 103.256 150.308C103.256 151.969 104.659 153.316 106.39 153.316Z" fill="#CBCBCB"/>
<path d="M118.045 170.988H102.63V172.241H118.045V170.988Z" fill="#CBCBCB"/>
<path d="M110.526 178.758H102.63V186.529H110.526V178.758Z" fill="#AFAFAF"/>
<path d="M110.526 190.164H102.63V197.934H110.526V190.164Z" fill="#AFAFAF"/>
<path d="M110.526 201.444H102.63V209.214H110.526V201.444Z" fill="#AFAFAF"/>
<path d="M310.8 94.6597H299.27V96.9157H310.8V94.6597Z" fill="#CBCBCB"/>
<path d="M267.186 153.441H317.693" stroke="#E2E2E2" stroke-width="0.495158" stroke-miterlimit="10"/>
<path d="M269.943 117.095C271.327 117.095 272.449 115.972 272.449 114.588C272.449 113.204 271.327 112.081 269.943 112.081C268.558 112.081 267.436 113.204 267.436 114.588C267.436 115.972 268.558 117.095 269.943 117.095Z" fill="#AFAFAF"/>
<path d="M269.943 127.372C271.327 127.372 272.449 126.25 272.449 124.865C272.449 123.481 271.327 122.358 269.943 122.358C268.558 122.358 267.436 123.481 267.436 124.865C267.436 126.25 268.558 127.372 269.943 127.372Z" fill="#276EF1"/>
<path d="M269.943 137.775C271.327 137.775 272.449 136.652 272.449 135.268C272.449 133.883 271.327 132.761 269.943 132.761C268.558 132.761 267.436 133.883 267.436 135.268C267.436 136.652 268.558 137.775 269.943 137.775Z" fill="#CBCBCB"/>
<path d="M269.943 147.926C271.327 147.926 272.449 146.804 272.449 145.42C272.449 144.035 271.327 142.913 269.943 142.913C268.558 142.913 267.436 144.035 267.436 145.42C267.436 146.804 268.558 147.926 269.943 147.926Z" fill="#CBCBCB"/>
<path d="M285.232 210.718C287.309 210.718 288.992 209.09 288.992 207.084C288.992 205.076 287.309 203.449 285.232 203.449C283.156 203.449 281.473 205.076 281.473 207.084C281.473 209.09 283.156 210.718 285.232 210.718Z" fill="#AFAFAF"/>
<path d="M241.619 163.969H146.37V141.911H241.619V163.969ZM147.122 163.217H240.867V142.663H147.122V163.217Z" fill="#E2E2E2"/>
<path d="M160.03 148.804H151.759V157.076H160.03V148.804Z" fill="#CBCBCB"/>
<path d="M160.03 174.246H151.759V182.518H160.03V174.246Z" fill="#CBCBCB"/>
<path d="M160.03 199.689H151.759V207.961H160.03V199.689Z" fill="#CBCBCB"/>
<path d="M252.773 124.991H146.62V126.62H252.773V124.991Z" fill="#E2E2E2"/>
<path d="M197.378 129.252H146.62V130.881H197.378V129.252Z" fill="#E2E2E2"/>
<path d="M217.43 153.191H164.792V154.82H217.43V153.191Z" fill="#E2E2E2"/>
<path d="M185.597 113.585H146.495V117.846H185.597V113.585Z" fill="#E2E2E2"/>
<path d="M189.983 157.577H164.792V159.207H189.983V157.577Z" fill="#E2E2E2"/>
<path d="M241.619 189.412H146.37V167.353H241.619V189.412ZM147.122 188.785H240.867V167.98H147.122V188.785Z" fill="#E2E2E2"/>
<path d="M219.937 178.633H164.792V180.262H219.937V178.633Z" fill="#E2E2E2"/>
<path d="M211.665 172.241H164.792V176.503H211.665V172.241Z" fill="#E2E2E2"/>
<path d="M184.594 182.895H164.792V184.524H184.594V182.895Z" fill="#E2E2E2"/>
<path d="M241.619 214.854H146.37V192.796H241.619V214.854ZM147.122 214.228H240.867V193.422H147.122V214.228Z" fill="#E2E2E2"/>
<path d="M210.537 204.076H164.792V205.705H210.537V204.076Z" fill="#E2E2E2"/>
<path d="M198.756 197.684H164.792V201.945H198.756V197.684Z" fill="#E2E2E2"/>
<path d="M182.338 208.462H164.792V210.092H182.338V208.462Z" fill="#E2E2E2"/>
<path d="M233.094 203.43L232.128 204.397L231.163 203.43" stroke="black" stroke-width="0.525096" stroke-miterlimit="10" stroke-linecap="round" stroke-linejoin="round"/>
<path d="M295.885 113.836H276.083V115.465H295.885V113.836Z" fill="#AFAFAF"/>
<path d="M293.88 123.737H276.083V125.367H293.88V123.737Z" fill="#276EF1"/>
<path d="M295.885 134.265H276.083V135.894H295.885V134.265Z" fill="#CBCBCB"/>
<path d="M292 144.542H276.083V146.172H292V144.542Z" fill="#CBCBCB"/>
<path fill-rule="evenodd" clip-rule="evenodd" d="M315.042 94.4093C315.042 94.9106 314.666 95.2866 314.165 95.2866C313.664 95.2866 313.288 94.9106 313.288 94.4093C313.288 93.908 313.664 93.532 314.165 93.532C314.666 93.532 315.042 94.0333 315.042 94.4093ZM312.68 96.54C312.68 96.0386 313.056 95.6626 313.682 95.6626H314.685C315.186 95.6626 315.688 96.0386 315.688 96.54V97.0413H312.68V96.54Z" fill="#CBCBCB"/>
<path d="M233.094 177.917L232.128 178.884L231.163 177.917" stroke="black" stroke-width="0.525096" stroke-miterlimit="10" stroke-linecap="round" stroke-linejoin="round"/>
<path d="M233.094 152.475L232.128 153.441L231.163 152.475" stroke="black" stroke-width="0.525096" stroke-miterlimit="10" stroke-linecap="round" stroke-linejoin="round"/>
<path d="M177.451 280.654C175.445 281.657 173.816 283.036 172.438 284.916H264.679C263.3 283.036 261.796 281.657 259.666 280.654C257.66 279.652 255.53 279.025 253.399 279.025C247.76 279.025 242.621 276.894 238.736 273.009C234.851 269.124 232.72 263.734 232.72 258.345V249.697H204.647V258.345C204.647 263.985 202.516 269.124 198.631 273.009C194.746 276.894 189.357 279.025 183.968 279.025C181.586 279.15 179.456 279.652 177.451 280.654Z" fill="#AFAFAF"/>
<path d="M293.129 209.841C300.603 209.841 306.664 203.781 306.664 196.305C306.664 188.829 300.603 182.769 293.129 182.769C285.653 182.769 279.593 188.829 279.593 196.305C279.593 203.781 285.653 209.841 293.129 209.841Z" stroke="#5B91F5" stroke-width="4.25999" stroke-miterlimit="10"/>
<path d="M259.666 176.127L266.433 222.124L276.209 218.74V176.127H259.666Z" fill="#B3CDFE"/>
<path d="M300.021 176.127H276.209V218.74L294.757 212.097L300.021 176.127Z" fill="#5B91F5"/>
<path d="M269.818 238.292L266.183 240.422L254.027 219.367C253.4 218.364 253.776 217.111 254.779 216.484C255.781 215.857 257.034 216.233 257.661 217.236L269.818 238.292Z" fill="#FABDA5"/>
<path d="M272.951 231.649L267.687 234.657L256.031 214.478C255.154 212.974 255.655 211.094 257.159 210.342C258.663 209.465 260.543 209.966 261.295 211.47L272.951 231.649Z" fill="#FABDA5"/>
<path d="M275.457 223.753L270.194 226.761L258.538 206.582C257.661 205.078 258.162 203.198 259.666 202.446C261.17 201.569 263.05 202.07 263.802 203.574L275.457 223.753Z" fill="#FABDA5"/>
<path d="M280.219 213.225L270.694 215.481L258.914 195.052C258.162 193.673 258.538 191.918 259.791 191.166C261.044 190.289 262.799 190.54 263.801 191.793L280.219 213.225Z" fill="#FABDA5"/>
<path d="M271.447 205.58L288.993 209.841L282.1 220.494L271.447 205.58Z" fill="#FABDA5"/>
<path d="M288.992 208.713H281.473V216.609H288.992V208.713Z" fill="#FABDA5"/>
<path d="M283.479 211.094L293.254 203.324C293.755 202.948 294.006 202.321 294.006 201.694V198.937C294.006 197.558 294.633 196.305 295.635 195.428L297.515 193.798C298.267 193.046 299.646 193.673 299.646 194.801L299.019 207.71C299.019 208.462 298.769 209.089 298.393 209.716C296.387 212.724 289.87 222.625 289.87 231.022L283.479 211.094Z" fill="#FABDA5"/>
<path d="M289.745 230.897L260.668 221.748L266.183 240.297H289.745V230.897Z" fill="#FABDA5"/>
<path d="M263.802 208.713L266.308 227.889L281.473 232.652L289.745 230.897L288.993 216.609L280.22 212.724L271.447 205.58L263.802 208.713Z" fill="#FABDA5"/>
<path d="M266.183 240.297C266.183 240.297 265.18 311.988 269.441 320.26H304.909C304.909 320.26 303.154 293.689 293.254 260.726C293.254 260.726 289.87 249.822 289.87 240.297H266.183Z" fill="#F7BFA5"/>
<path d="M366.32 153.817L369.954 163.719L380.357 193.297H422.717L408.054 148.052L369.202 156.073L366.32 153.817Z" fill="#F7BFA5"/>
<path d="M343.26 130.254H342.132C337.871 130.254 334.362 126.745 334.362 122.484V116.468C334.362 114.839 335.615 113.585 337.244 113.585H348.148C349.777 113.585 351.03 114.839 351.03 116.468V122.484C351.03 126.745 347.521 130.254 343.26 130.254Z" stroke="black" stroke-width="1.12175" stroke-miterlimit="10"/>
<path d="M344.638 94.0331V108.196C344.638 110.201 345.014 112.081 345.766 113.961L347.521 117.972L346.142 123.361C345.14 127.372 345.265 131.633 346.643 135.644L349.651 144.668C349.902 145.545 350.403 146.422 350.779 147.3L352.033 149.43C353.286 151.686 354.038 154.318 354.038 156.95V157.452C354.038 158.454 354.414 159.457 355.166 160.084C355.918 160.836 364.189 159.645 365.067 159.645L368.368 159.396L382.738 156.324L407.929 148.177V98.2945L344.638 94.0331Z" fill="#F7BFA5"/>
<path d="M353.662 111.58C353.662 111.58 352.033 122.358 356.294 133.262L365.443 113.71L353.662 111.58Z" fill="#3D281E"/>
<path d="M362.059 121.607C362.937 120.479 364.19 119.852 365.568 119.852H366.195C368.827 119.852 371.208 121.481 372.085 123.988C373.088 126.62 373.088 129.628 372.211 132.26L370.832 136.396C370.456 137.399 369.83 138.151 368.952 138.527L368.2 138.903C367.699 139.153 367.072 139.279 366.571 139.279H365.819C365.067 139.279 364.44 139.028 363.814 138.652C362.811 138.025 362.185 136.897 362.059 135.769L361.307 124.615C361.057 123.487 361.433 122.484 362.059 121.607Z" fill="#F19164"/>
<path d="M364.44 119.351H334.487V116.092L364.44 117.721V119.351Z" fill="#AE372A"/>
<path d="M361.683 156.324C360.304 157.703 358.8 158.705 356.92 159.457L356.168 159.833L355.27 160.157C356.126 160.709 364.106 160.398 368.368 159.396L366.32 153.817C366.32 153.817 363.312 154.695 361.683 156.324Z" fill="#F19164"/>
<path fill-rule="evenodd" clip-rule="evenodd" d="M410.686 170.737C379.855 170.737 369.203 184.524 369.203 184.524L337.871 237.665C331.855 247.942 331.354 260.601 336.492 271.38L344.012 286.921C345.014 289.177 345.766 291.433 346.268 293.814L348.147 303.089C348.523 304.844 348.649 306.724 348.649 308.604V335.801C348.649 338.809 349.902 341.691 352.033 343.822L352.534 344.323C354.664 346.454 357.547 347.707 360.555 347.707H444.023C448.034 347.707 451.794 345.577 453.799 342.067C455.177 339.686 455.679 336.803 455.177 334.046L453.856 327.261L352.926 327.196L379.33 228.795C380.956 222.559 386.587 218.318 393.094 218.318H432.646L425.725 182.769C421.088 169.609 410.686 170.737 410.686 170.737Z" fill="#FFC35B"/>
<path fill-rule="evenodd" clip-rule="evenodd" d="M371.058 259.622L352.926 327.196L365.209 327.204C366.102 329.644 367.184 332.016 368.451 334.297L369.203 335.55C371.459 339.561 370.581 344.574 367.198 347.582H360.43C357.422 347.582 354.539 346.329 352.409 344.198L351.908 343.697C349.777 341.566 348.524 338.683 348.524 335.675V308.604C348.524 306.849 348.398 304.969 348.022 303.089L346.142 293.814C345.766 291.433 344.889 289.052 343.887 286.921L336.367 271.38C331.103 260.601 331.73 247.942 337.745 237.665L341.004 232.15L371.058 259.622Z" fill="#FFA200"/>
<g style="mix-blend-mode:multiply" opacity="0.1">
<path fill-rule="evenodd" clip-rule="evenodd" d="M371.058 259.622L352.926 327.196L365.209 327.204C366.102 329.644 367.184 332.016 368.451 334.297L369.203 335.55C371.459 339.561 370.581 344.574 367.198 347.582H360.43C357.422 347.582 354.539 346.329 352.409 344.198L351.908 343.697C349.777 341.566 348.524 338.683 348.524 335.675V308.604C348.524 306.849 348.398 304.969 348.022 303.089L346.142 293.814C345.766 291.433 344.889 289.052 343.887 286.921L336.367 271.38C331.103 260.601 331.73 247.942 337.745 237.665L341.004 232.15L371.058 259.622Z" fill="black"/>
</g>
<path d="M353.411 285.041L319.949 253.582L317.693 235.284L358.55 254.334L353.411 285.041Z" fill="#664D1B"/>
<path d="M317.693 235.284L290.998 315.246C289.369 320.134 290.121 325.523 293.128 329.785L293.63 330.411C297.014 335.299 302.904 337.931 308.794 337.305C314.309 336.678 319.197 333.294 321.578 328.406L358.55 254.334L317.693 235.284Z" fill="#F7BFA5"/>
<path d="M340.753 246.062L327.217 239.796C325.338 245.686 325.714 251.953 328.596 257.468L328.721 257.593C331.855 263.734 332.356 270.878 330.1 277.521L309.797 337.179C314.935 336.302 319.322 333.043 321.703 328.406L337.996 295.694L358.549 254.334L340.753 246.062Z" fill="#F19164"/>
<path d="M355.793 74.6065C347.897 78.8678 341.882 86.0118 339.751 94.6598C338.874 98.2945 338.623 102.305 339.626 106.316L341.756 97.1665C341.756 97.1665 340.503 103.182 343.636 108.697C345.767 112.457 349.652 114.838 353.913 115.34C354.164 115.34 354.54 115.34 354.791 115.34L369.078 126.118C369.078 126.118 380.608 135.268 389.757 150.182C389.757 150.182 402.164 153.692 409.308 150.182C409.308 150.182 424.724 133.638 425.726 110.452C426.353 94.4091 418.582 78.9932 405.298 70.0945C400.911 67.2119 395.898 65.0812 390.634 65.0812C390.634 65.0812 375.846 63.7025 355.793 74.6065Z" fill="#3D281E"/>
<path d="M355.291 84.884C355.291 84.884 355.793 90.1479 359.427 90.8999C359.427 90.8999 358.174 84.3826 362.56 79.8706C362.56 79.8706 362.936 83.5053 366.32 83.5053L367.072 76.612C367.072 76.612 370.331 75.3586 372.962 76.612C372.962 76.612 372.336 64.753 396.775 66.0063C394.769 65.3796 392.639 64.8307 390.508 64.8307C390.508 64.8307 375.72 63.452 355.667 74.356C347.772 78.6173 341.756 85.7613 339.625 94.4093C338.748 98.0439 338.623 102.305 339.625 106.316L341.756 97.1666C341.756 97.1666 341.396 98.5991 341.44 100.734C341.521 104.651 343.919 108.156 347.521 109.7C347.646 110.076 341.129 101.303 355.291 84.884Z" fill="#5C3C2E"/>
<path d="M406.927 110.076C411.772 110.076 415.7 105.026 415.7 98.7959C415.7 92.5661 411.772 87.516 406.927 87.516C402.082 87.516 398.154 92.5661 398.154 98.7959C398.154 105.026 402.082 110.076 406.927 110.076Z" fill="#AE372A"/>
<path d="M410.561 74.8573C406.55 77.4893 402.164 82.628 400.911 87.3906C399.908 91.2759 400.033 96.5399 400.535 100.551C401.036 104.436 402.665 109.199 404.796 112.457C406.425 114.964 409.057 116.092 411.814 116.844C417.203 118.473 423.094 118.348 428.483 116.593C432.995 115.089 438.885 112.332 441.893 108.572C445.402 104.185 445.903 96.4146 444.775 91.1506C443.021 83.6306 436.003 79.4946 429.611 76.236C424.096 73.228 415.699 71.9747 410.561 74.8573Z" fill="#3D281E"/>
<path d="M409.057 112.332C406.926 109.073 405.172 104.311 404.796 100.425C404.294 96.4146 404.044 91.1506 405.172 87.2653C406.425 82.5026 410.937 77.4893 414.822 74.732C416.326 73.8546 418.08 73.5902 419.96 73.3395C416.451 72.9635 413.067 73.3533 410.435 74.732C406.425 77.364 402.039 82.5026 400.785 87.2653C399.783 91.1506 399.908 96.4146 400.409 100.425C400.911 104.311 402.54 109.073 404.67 112.332C406.3 114.839 408.932 115.967 411.689 116.719C414.947 117.721 418.356 118.176 421.615 117.925C419.735 117.8 417.83 117.345 415.95 116.719C413.318 115.967 410.811 114.839 409.057 112.332Z" fill="#5C3C2E"/>
<path d="M359.427 121.105C360.305 119.977 361.558 119.351 362.937 119.351H363.563C366.195 119.351 368.576 120.98 369.454 123.487C370.456 126.119 370.456 129.127 369.579 131.759L368.2 135.895C367.824 136.897 367.198 137.649 366.32 138.025L365.568 138.401C365.067 138.652 364.44 138.777 363.939 138.777H363.187C362.435 138.777 361.809 138.527 361.182 138.151C360.179 137.524 359.553 136.396 359.427 135.268L358.675 124.113C358.55 122.985 358.801 121.983 359.427 121.105Z" fill="#F7BFA5"/>
<path fill-rule="evenodd" clip-rule="evenodd" d="M317.693 235.284L328.722 208.337L377.002 237.469L369.234 266.418L353.411 285.041C356.294 254.334 317.693 235.284 317.693 235.284Z" fill="#FFC35B"/>
<path fill-rule="evenodd" clip-rule="evenodd" d="M431.741 184.775H371.834C356.294 184.775 341.38 191.668 331.855 203.825C330.727 205.329 329.599 206.833 328.722 208.337L372.593 253.901L379.33 228.795C380.956 222.559 386.587 218.318 393.094 218.318H471.238C468.215 199.807 452.156 184.775 431.741 184.775Z" fill="#FFC35B"/>
<path fill-rule="evenodd" clip-rule="evenodd" d="M0 293.128V285H364.248L356.467 314H136.06C131.503 313.177 127.278 310.983 123.97 307.688L116.099 299.848V299.803C111.827 295.547 106.025 293.128 99.9533 293.128H99.9083H68.6057H0Z" fill="#5B91F5"/>
</g>
</g>
<defs>
<clipPath id="clip0_555_12000">
<rect width="558" height="314" fill="white"/>
</clipPath>
<clipPath id="clip1_555_12000">
<rect width="558" height="332" fill="white" transform="translate(0 -13)"/>
</clipPath>
</defs>
</svg>
